HIERARCHY
ROOT hip
{
	OFFSET 0.000000 0.000000 0.000000
	CHANNELS 6 Xposition Yposition Zposition Xrotation Zrotation Yrotation 
	JOINT abdomen
	{
		OFFSET 0.000000 3.422050 0.000000
		CHANNELS 3 Xrotation Zrotation Yrotation 
		JOINT chest
		{
			OFFSET 0.000000 8.486693 -0.684411
			CHANNELS 3 Xrotation Zrotation Yrotation 
			JOINT neck
			{
				OFFSET 0.000000 10.266162 -0.273764
				CHANNELS 3 Xrotation Zrotation Yrotation 
				JOINT head
				{
					OFFSET 0.000000 3.148285 0.000000
					CHANNELS 3 Xrotation Zrotation Yrotation 
					End Site
					{
						OFFSET 0.000000 3.148289 0.000000
					}
				}
			}
			JOINT lCollar
			{
				OFFSET 3.422053 6.707223 -0.821293
				CHANNELS 3 Yrotation Zrotation Xrotation 
				JOINT lShldr
				{
					OFFSET 3.285171 0.000000 0.000000
					CHANNELS 3 Zrotation Yrotation Xrotation 
					JOINT lForeArm
					{
						OFFSET 10.129278 0.000000 0.000000
						CHANNELS 3 Yrotation Zrotation Xrotation 
						JOINT lHand
						{
							OFFSET 8.486692 0.000000 0.000000
							CHANNELS 3 Zrotation Yrotation Xrotation 
							End Site
							{
								OFFSET 4.106464 0.000000 0.000000
							}
						}
					}
				}
			}
			JOINT rCollar
			{
				OFFSET -3.558935 6.707223 -0.821293
				CHANNELS 3 Yrotation Zrotation Xrotation 
				JOINT rShldr
				{
					OFFSET -3.148289 0.000000 0.000000
					CHANNELS 3 Zrotation Yrotation Xrotation 
					JOINT rForeArm
					{
						OFFSET -10.266159 0.000000 0.000000
						CHANNELS 3 Yrotation Zrotation Xrotation 
						JOINT rHand
						{
							OFFSET -8.349810 0.000000 0.000000
							CHANNELS 3 Zrotation Yrotation Xrotation 
							End Site
							{
								OFFSET -4.106464 0.000000 0.000000
							}
						}
					}
				}
			}
		}
	}
	JOINT lThigh
	{
		OFFSET 5.338403 -1.642589 1.368821
		CHANNELS 3 Xrotation Zrotation Yrotation 
		JOINT lShin
		{
			OFFSET -2.053232 -20.121670 0.000000
			CHANNELS 3 Xrotation Zrotation Yrotation 
			JOINT lFoot
			{
				OFFSET 0.000000 -19.300380 -1.231939
				CHANNELS 3 Xrotation Yrotation Zrotation 
				End Site
				{
					OFFSET 0.000000 -2.463878 4.653993
				}
			}
		}
	}
	JOINT rThigh
	{
		OFFSET -5.338403 -1.642589 1.368821
		CHANNELS 3 Xrotation Zrotation Yrotation 
		JOINT rShin
		{
			OFFSET 2.053232 -20.121670 0.000000
			CHANNELS 3 Xrotation Zrotation Yrotation 
			JOINT rFoot
			{
				OFFSET 0.000000 -19.300380 -1.231939
				CHANNELS 3 Xrotation Yrotation Zrotation 
				End Site
				{
					OFFSET 0.000000 -2.463878 4.653993
				}
			}
		}
	}
}
MOTION
Frames: 9
Frame Time: 0.050000
0.000000 43.528500 0.000000 0.000000 0.000000 0.000000 0.000000 0.000000 0.000000 0.000000 0.000000 0.000000 0.000000 0.000000 0.000000 0.000000 0.000000 0.000000 0.000000 0.000000 0.000000 0.000000 0.000000 0.000000 0.000000 0.000000 0.000000 0.000000 0.000000 0.000000 0.000000 0.000000 0.000000 0.000000 0.000000 0.000000 0.000000 0.000000 0.000000 0.000000 0.000000 0.000000 0.000000 0.000000 0.000000 0.000000 0.000000 0.000000 0.000000 0.000000 0.000000 0.000000 0.000000 0.000000 0.000000 0.000000 0.000000 0.000000 0.000000 0.000000 
0.000000 18.996965 29.998350 -89.996941 0.254758 -179.732864 11.932459 -0.344745 -0.452697 10.769007 -1.047504 -0.831154 6.996825 0.000000 0.000000 -24.002691 0.000000 0.000000 0.649090 19.805033 -28.034826 -58.783943 -56.829105 8.249356 -68.066261 57.354172 -78.215408 -38.503853 -12.156657 -0.459982 -1.169309 -19.421021 -27.963554 58.772247 56.720787 8.228136 68.290604 -57.461548 -77.976265 38.421139 12.252538 -0.744505 -85.765945 32.791603 -23.183342 88.131416 -16.732552 0.849781 42.693314 4.047574 6.593404 -92.477081 -35.262650 27.188343 88.121597 16.702425 -0.855689 42.705326 -4.024037 -6.617482 
0.000000 18.996965 29.998350 -89.996941 0.254758 -179.732864 11.932459 -0.344745 -0.452697 10.769008 -1.047504 -0.831154 6.228399 0.000000 0.000000 -21.491526 0.000000 0.000000 0.649090 19.805033 -28.034828 -58.783947 -56.829105 8.249359 -68.066261 57.354172 -78.215408 -38.503857 -12.156657 -0.459982 -1.169309 -19.421021 -27.963554 58.772255 56.720798 8.228134 68.290604 -57.461548 -77.976265 38.421139 12.252538 -0.744505 -85.765953 32.791607 -23.183344 88.131416 -16.732553 0.849782 42.693317 4.047574 6.593404 -92.477081 -35.262650 27.188343 88.121597 16.702425 -0.855688 42.705326 -4.024037 -6.617483 
0.000000 18.996965 29.998350 -89.996941 0.254758 -179.732864 11.932458 -0.344745 -0.452697 10.769007 -1.047504 -0.831154 5.459593 0.000000 0.000000 -18.966785 0.000000 0.000000 0.649089 19.805031 -28.034822 -58.783943 -56.829105 8.249356 -68.066261 57.354172 -78.215408 -38.503853 -12.156657 -0.459982 -1.169309 -19.421019 -27.963552 58.772243 56.720776 8.228138 68.290604 -57.461540 -77.976250 38.421135 12.252537 -0.744505 -85.765930 32.791599 -23.183336 88.131416 -16.732552 0.849782 42.693314 4.047574 6.593404 -92.477074 -35.262646 27.188339 88.121597 16.702423 -0.855688 42.705322 -4.024037 -6.617482 
0.000000 18.996965 29.998350 -89.996941 0.254758 -179.732864 11.932459 -0.344745 -0.452697 10.769007 -1.047504 -0.831154 4.690475 0.000000 0.000000 -16.430826 0.000000 0.000000 0.649090 19.805033 -28.034826 -58.783943 -56.829105 8.249356 -68.066261 57.354164 -78.215385 -38.503853 -12.156657 -0.459982 -1.169309 -19.421017 -27.963552 58.772247 56.720787 8.228136 68.290604 -57.461548 -77.976265 38.421139 12.252538 -0.744505 -85.765945 32.791603 -23.183342 88.131416 -16.732552 0.849781 42.693314 4.047574 6.593404 -92.477081 -35.262650 27.188343 88.121597 16.702423 -0.855688 42.705326 -4.024037 -6.617482 
0.000000 18.996965 29.998350 -89.996941 0.254758 -179.732864 11.932459 -0.344745 -0.452697 10.769007 -1.047504 -0.831154 3.921114 0.000000 0.000000 -13.886080 0.000000 0.000000 0.649090 19.805033 -28.034828 -58.783943 -56.829105 8.249356 -68.066269 57.354187 -78.215408 -38.503853 -12.156657 -0.459982 -1.169309 -19.421021 -27.963558 58.772255 56.720795 8.228137 68.290604 -57.461548 -77.976265 38.421139 12.252538 -0.744505 -85.765953 32.791607 -23.183348 88.131416 -16.732553 0.849781 42.693314 4.047574 6.593404 -92.477081 -35.262650 27.188343 88.121597 16.702425 -0.855689 42.705330 -4.024037 -6.617482 
0.000000 18.996965 29.998350 -89.996941 0.254758 -179.732864 11.932458 -0.344745 -0.452697 10.769007 -1.047504 -0.831154 3.151580 0.000000 0.000000 -11.335007 0.000000 0.000000 0.649089 19.805033 -28.034822 -58.783936 -56.829090 8.249357 -68.066261 57.354172 -78.215401 -38.503849 -12.156656 -0.459982 -1.169309 -19.421019 -27.963551 58.772247 56.720779 8.228140 68.290604 -57.461548 -77.976265 38.421135 12.252537 -0.744505 -85.765945 32.791603 -23.183342 88.131416 -16.732552 0.849781 42.693310 4.047574 6.593403 -92.477066 -35.262650 27.188341 88.121597 16.702425 -0.855689 42.705322 -4.024037 -6.617482 
0.000000 18.996965 29.998350 -89.996941 0.254758 -179.732864 11.932459 -0.344745 -0.452697 10.769007 -1.047504 -0.831154 2.381942 0.000000 0.000000 -8.780136 0.000000 0.000000 0.649090 19.805033 -28.034826 -58.783943 -56.829105 8.249356 -68.066261 57.354172 -78.215408 -38.503853 -12.156657 -0.459982 -1.169309 -19.421021 -27.963554 58.772247 56.720787 8.228136 68.290604 -57.461548 -77.976265 38.421139 12.252538 -0.744505 -85.765945 32.791603 -23.183342 88.131416 -16.732552 0.849781 42.693310 4.047574 6.593403 -92.477081 -35.262650 27.188343 88.121597 16.702423 -0.855689 42.705326 -4.024037 -6.617482 
0.000000 18.996965 29.998350 -89.996941 0.254758 -179.732864 11.932459 -0.344745 -0.452697 10.769007 -1.047504 -0.831154 1.612268 0.000000 0.000000 -6.223991 0.000000 0.000000 0.649090 19.805033 -28.034826 -58.783943 -56.829105 8.249356 -68.066261 57.354172 -78.215408 -38.503853 -12.156657 -0.459982 -1.169309 -19.421021 -27.963554 58.772247 56.720787 8.228136 68.290604 -57.461548 -77.976265 38.421139 12.252538 -0.744505 -85.765945 32.791603 -23.183342 88.131416 -16.732552 0.849781 42.693314 4.047574 6.593404 -92.477081 -35.262650 27.188343 88.121597 16.702425 -0.855689 42.705326 -4.024037 -6.617482 
